# Blender v2.79 (sub 0) OBJ File: 'space_ship.blend'
# www.blender.org
mtllib space_ship.mtl
o Lo_poly_Spaceship_05_by_Liz_Reddington
v -2.636829 -1.020373 5.699229
v -2.636829 -0.305766 5.699229
v -3.351435 -0.305766 5.699229
v -3.351435 -1.020373 5.699229
v -2.636829 -0.305765 -0.498018
v -3.351435 -0.305765 -0.498018
v -2.636829 -1.020372 -0.498018
v -3.351435 -1.020372 -0.498018
v 2.636829 -1.020373 5.699229
v 3.351435 -1.020373 5.699229
v 3.351435 -0.305766 5.699229
v 2.636829 -0.305766 5.699229
v 3.351435 -0.305765 -0.498018
v 2.636829 -0.305765 -0.498018
v 2.636829 -1.020372 -0.498018
v 3.351435 -1.020372 -0.498018
v 3.563712 -1.144198 -1.802864
v 5.267704 -2.078951 -0.964787
v 5.267704 -1.425926 -0.964787
v 3.563712 -0.399924 -1.802864
v 6.440626 -1.425925 -7.667134
v 5.050335 -0.399922 -9.339753
v 6.440626 -2.078950 -7.667135
v 5.050335 -1.144197 -9.339753
v 11.638898 -5.573972 2.168766
v 11.638898 -5.573972 -1.413245
v 11.638898 -5.262127 -1.413245
v 11.638898 -5.262127 2.168766
v 10.703254 -4.571643 -2.538892
v 10.703254 -4.944897 -2.538892
v 10.492137 -4.944898 1.604753
v 10.492137 -4.571644 1.604753
v -3.563712 -1.144198 -1.802864
v -3.563712 -0.399924 -1.802864
v -5.267704 -1.425926 -0.964787
v -5.267704 -2.078951 -0.964787
v -5.050335 -0.399922 -9.339753
v -6.440626 -1.425925 -7.667134
v -5.050335 -1.144197 -9.339753
v -6.440626 -2.078950 -7.667135
v -11.638898 -5.573972 2.168766
v -11.638898 -5.262127 2.168766
v -11.638898 -5.262127 -1.413245
v -11.638898 -5.573972 -1.413245
v -10.703254 -4.944897 -2.538892
v -10.703254 -4.571643 -2.538892
v -10.492137 -4.944898 1.604753
v -10.492137 -4.571644 1.604753
v -1.261956 -1.085751 3.573383
v -2.192704 0.787370 3.573384
v -4.165901 -0.193105 -1.045839
v -3.235152 -2.066226 -1.045839
v -3.146098 1.662316 -9.760828
v -6.020688 0.233940 -9.760828
v -2.013206 -0.997920 -9.760828
v -4.736244 -2.350989 -9.760828
v 1.261956 -1.085751 3.573383
v 3.235152 -2.066226 -1.045839
v 4.165901 -0.193105 -1.045839
v 2.192704 0.787370 3.573384
v 6.020688 0.233940 -9.760828
v 3.146098 1.662316 -9.760828
v 4.736244 -2.350989 -9.760828
v 2.013206 -0.997920 -9.760828
v -2.973796 -0.766196 -3.142153
v -2.973796 -0.039561 -3.142153
v -5.113737 0.778931 -3.135825
v -5.113737 0.148835 -3.135826
v -5.037443 0.595562 -9.334179
v -6.109457 1.016192 -8.517824
v -5.227704 -0.015662 -9.334179
v -6.259004 0.476809 -8.517824
v -10.046968 2.447742 -3.112586
v -10.046968 2.723253 -3.112586
v -10.046968 2.561167 -5.519348
v -10.046968 2.285655 -5.519348
v 2.973796 -0.766196 -3.142153
v 5.113737 0.148835 -3.135826
v 5.113737 0.778931 -3.135825
v 2.973796 -0.039561 -3.142153
v 6.109457 1.016192 -8.517824
v 5.037443 0.595562 -9.334179
v 6.259004 0.476809 -8.517824
v 5.227704 -0.015662 -9.334179
v 10.046968 2.447742 -3.112586
v 10.046968 2.285655 -5.519348
v 10.046968 2.561167 -5.519348
v 10.046968 2.723253 -3.112586
v -2.806034 -0.851169 10.575500
v -2.806034 -0.474972 10.575500
v -3.182230 -0.474972 10.575500
v -3.182230 -0.851169 10.575500
v -2.806034 -0.474971 5.659178
v -3.182230 -0.474971 5.659178
v -2.806034 -0.851168 5.659178
v -3.182230 -0.851168 5.659178
v 3.600956 1.097955 -9.729914
v 5.639689 0.063306 -9.729914
v 6.372038 0.302568 -11.813858
v 3.361694 1.830304 -11.813858
v 3.769993 0.580557 -10.990084
v 5.122293 -0.105729 -10.990084
v 4.436007 -1.458031 -10.990084
v 3.083705 -0.771744 -10.990084
v 1.833959 -1.180041 -11.813858
v 4.844302 -2.707776 -11.813858
v 4.605041 -1.975428 -9.729914
v 2.566308 -0.940780 -9.729914
v 5.631939 0.060774 -11.813858
v 3.603488 1.090204 -11.813858
v 4.602509 -1.967677 -11.813858
v 2.574058 -0.938248 -11.813858
v 2.806034 -0.851169 10.575500
v 3.182230 -0.851169 10.575500
v 3.182230 -0.474972 10.575500
v 2.806034 -0.474972 10.575500
v 3.182230 -0.474971 5.659178
v 2.806034 -0.474971 5.659178
v 2.806034 -0.851168 5.659178
v 3.182230 -0.851168 5.659178
v -3.600956 1.097955 -9.729914
v -3.361694 1.830304 -11.813858
v -6.372038 0.302568 -11.813858
v -5.639689 0.063306 -9.729914
v -3.769993 0.580557 -10.990084
v -3.083705 -0.771744 -10.990084
v -4.436007 -1.458031 -10.990084
v -5.122293 -0.105729 -10.990084
v -1.833959 -1.180041 -11.813858
v -2.566308 -0.940780 -9.729914
v -4.605041 -1.975428 -9.729914
v -4.844302 -2.707776 -11.813858
v -3.603488 1.090204 -11.813858
v -5.631939 0.060774 -11.813858
v -4.602509 -1.967677 -11.813858
v -2.574058 -0.938248 -11.813858
v -0.314058 4.628076 -3.739216
v 0.314058 4.628076 -3.739216
v 0.169045 6.433675 -9.044743
v -0.169045 6.433675 -9.044743
v 0.165788 6.433676 -10.812740
v -0.165788 6.433676 -10.812740
v 0.570379 4.626593 -10.602986
v -0.570379 4.626593 -10.602986
v -0.910651 -1.603620 17.839634
v 0.910651 -1.603620 17.839634
v 1.200257 -0.126353 18.298878
v -1.200257 -0.126353 18.298878
v 2.253783 0.949455 3.425021
v -2.253783 0.949455 3.425021
v -3.281904 2.018132 -9.979415
v 3.281904 2.018132 -9.979415
v 2.490024 -1.240966 -9.979415
v -2.490024 -1.240966 -9.979415
v 2.544310 1.246127 -0.676689
v -1.338649 4.580117 -2.880576
v 1.338649 4.580117 -2.880576
v 1.027745 5.352123 -13.389170
v -1.027745 5.352123 -13.389170
v 1.205204 3.654290 0.007296
v -1.205204 3.654290 0.007296
v -2.544310 1.246127 -0.676689
vt 0.375000 0.000000
vt 0.375000 0.250000
vt 0.625000 0.250000
vt 0.625000 0.000000
vt 0.375000 0.500000
vt 0.625000 0.500000
vt 0.375000 0.750000
vt 0.375000 1.000000
vt 0.625000 1.000000
vt 0.625000 0.750000
vt 0.875000 0.250000
vt 0.875000 0.000000
vt 0.125000 0.000000
vt 0.125000 0.250000
vt 0.375000 0.000000
vt 0.625000 0.000000
vt 0.625000 0.250000
vt 0.375000 0.250000
vt 0.625000 0.500000
vt 0.375000 0.500000
vt 0.375000 0.750000
vt 0.625000 0.750000
vt 0.625000 1.000000
vt 0.375000 1.000000
vt 0.875000 0.000000
vt 0.875000 0.250000
vt 0.125000 0.000000
vt 0.125000 0.250000
vt 0.375000 0.000000
vt 0.375000 0.250000
vt 0.625000 0.250000
vt 0.625000 0.000000
vt 0.375000 0.500000
vt 0.625000 0.500000
vt 0.375000 0.750000
vt 0.375000 1.000000
vt 0.625000 1.000000
vt 0.625000 0.750000
vt 0.875000 0.250000
vt 0.875000 0.000000
vt 0.125000 0.000000
vt 0.125000 0.250000
vt 0.375000 0.500000
vt 0.625000 0.500000
vt 0.625000 0.750000
vt 0.375000 0.750000
vt 0.375000 0.000000
vt 0.625000 0.000000
vt 0.625000 0.250000
vt 0.375000 0.250000
vt 0.625000 0.500000
vt 0.375000 0.500000
vt 0.375000 0.750000
vt 0.625000 0.750000
vt 0.625000 1.000000
vt 0.375000 1.000000
vt 0.875000 0.000000
vt 0.875000 0.250000
vt 0.125000 0.000000
vt 0.125000 0.250000
vt 0.375000 0.500000
vt 0.375000 0.750000
vt 0.625000 0.750000
vt 0.625000 0.500000
vt 0.375000 0.387248
vt 0.625000 0.387248
vt 0.625000 0.387248
vt 0.375000 0.387248
vt 0.625000 0.387248
vt 0.625000 0.387248
vt 0.375000 0.387248
vt 0.375000 0.387248
vt 0.625000 0.000000
vt 0.625000 0.250000
vt 0.875000 0.250000
vt 0.875000 0.000000
vt 0.625000 0.000000
vt 0.875000 0.000000
vt 0.875000 0.250000
vt 0.625000 0.250000
vt 0.375000 0.250000
vt 0.625000 0.250000
vt 0.625000 0.500000
vt 0.375000 0.500000
vt 0.375000 0.750000
vt 0.625000 0.750000
vt 0.625000 1.000000
vt 0.375000 1.000000
vt 0.625000 0.000000
vt 0.875000 0.000000
vt 0.875000 0.250000
vt 0.125000 0.000000
vt 0.375000 0.000000
vt 0.125000 0.250000
vt 0.375000 0.500000
vt 0.625000 0.500000
vt 0.625000 0.750000
vt 0.375000 0.750000
vt 0.375000 0.250000
vt 0.375000 0.500000
vt 0.625000 0.500000
vt 0.625000 0.250000
vt 0.375000 0.750000
vt 0.375000 1.000000
vt 0.625000 1.000000
vt 0.625000 0.750000
vt 0.625000 0.000000
vt 0.875000 0.250000
vt 0.875000 0.000000
vt 0.125000 0.000000
vt 0.125000 0.250000
vt 0.375000 0.000000
vt 0.375000 0.500000
vt 0.625000 0.500000
vt 0.625000 0.750000
vt 0.375000 0.750000
vt 0.375000 0.000000
vt 0.625000 0.000000
vt 0.625000 0.250000
vt 0.375000 0.250000
vt 0.625000 0.357581
vt 0.375000 0.357581
vt 0.375000 0.500000
vt 0.625000 0.500000
vt 0.625000 0.750000
vt 0.375000 0.750000
vt 0.625000 1.000000
vt 0.375000 1.000000
vt 0.625000 0.500000
vt 0.375000 0.500000
vt 0.427754 0.500000
vt 0.589497 0.500000
vt 0.589497 0.750000
vt 0.427754 0.750000
vt 0.427754 1.000000
vt 0.589497 1.000000
vt 0.427754 0.250000
vt 0.427754 0.000000
vt 0.589497 0.000000
vt 0.589497 0.250000
vt 0.427754 0.500000
vt 0.427754 0.750000
vt 0.589497 0.750000
vt 0.589497 0.500000
vt 0.427754 1.000000
vt 0.589497 1.000000
vt 0.427754 0.250000
vt 0.589497 0.250000
vt 0.589497 0.000000
vt 0.427754 0.000000
vt 0.428499 0.250000
vt 0.428499 0.500000
vt 0.625000 0.500000
vt 0.428499 0.750000
vt 0.625000 0.750000
vt 0.428499 1.000000
vt 0.625000 1.000000
vt 0.428499 0.000000
vt 0.428499 0.250000
vt 0.625000 0.500000
vt 0.428499 0.500000
vt 0.428499 0.750000
vt 0.625000 0.750000
vt 0.428499 1.000000
vt 0.625000 1.000000
vt 0.428499 0.000000
vt 0.762248 0.250000
vt 0.875000 0.000000
vt 0.875000 0.250000
vt 0.125000 0.000000
vt 0.267420 0.250000
vt 0.732580 0.250000
vt 0.237752 0.250000
vt 0.125000 0.250000
vt 0.625000 0.000000
vt 0.875000 0.000000
vt 0.875000 0.250000
vt 0.625000 0.250000
vt 0.625000 0.000000
vt 0.625000 0.250000
vt 0.875000 0.250000
vt 0.875000 0.000000
vt 0.375000 0.000000
vt 0.375000 0.250000
vt 0.625000 0.250000
vt 0.625000 0.000000
vt 0.375000 0.500000
vt 0.625000 0.500000
vt 0.375000 0.750000
vt 0.625000 0.750000
vt 0.375000 1.000000
vt 0.625000 1.000000
vt 0.875000 0.250000
vt 0.875000 0.000000
vt 0.375000 0.000000
vt 0.625000 0.000000
vt 0.625000 0.250000
vt 0.375000 0.250000
vt 0.625000 0.500000
vt 0.375000 0.500000
vt 0.625000 0.750000
vt 0.375000 0.750000
vt 0.625000 1.000000
vt 0.375000 1.000000
vt 0.875000 0.000000
vt 0.875000 0.250000
vt 0.375000 0.000000
vt 0.625000 0.000000
vt 0.625000 0.250000
vt 0.375000 0.250000
vt 0.625000 0.500000
vt 0.375000 0.500000
vt 0.625000 0.750000
vt 0.375000 0.750000
vt 0.875000 0.000000
vt 0.875000 0.250000
vt 0.125000 0.000000
vt 0.125000 0.250000
vt 0.375000 0.000000
vt 0.375000 0.250000
vt 0.375000 0.500000
vt 0.375000 0.750000
vt 0.375000 1.000000
vt 0.625000 0.500000
vt 0.625000 0.750000
vt 0.625000 1.000000
vt 0.375000 0.000000
vt 0.375000 0.250000
vt 0.375000 0.500000
vt 0.375000 0.750000
vt 0.375000 1.000000
vt 0.625000 0.750000
vt 0.625000 0.500000
vt 0.625000 1.000000
vt 0.375000 0.000000
vt 0.375000 0.250000
vt 0.375000 0.500000
vt 0.375000 0.750000
vt 0.375000 1.000000
vt 0.375000 0.000000
vt 0.375000 0.250000
vt 0.375000 0.500000
vt 0.375000 0.750000
vt 0.375000 1.000000
vn 0.0000 0.0000 1.0000
vn 0.0000 1.0000 0.0000
vn 0.0000 -1.0000 -0.0000
vn -1.0000 -0.0000 0.0000
vn 1.0000 0.0000 0.0000
vn 0.0000 0.0000 -1.0000
vn 0.0000 0.7841 0.6206
vn 0.8805 0.4381 0.1812
vn 0.0000 0.9523 0.3053
vn -0.8813 0.4628 0.0959
vn 0.8813 0.4628 0.0959
vn -0.8805 0.4381 0.1812
vn 0.4378 0.8627 0.2529
vn -0.4378 -0.8627 0.2529
vn 0.8627 -0.4378 0.2529
vn -0.8627 0.4378 0.2529
vn -0.4111 -0.8101 -0.4181
vn -0.8101 0.4111 -0.4181
vn 0.4111 0.8101 -0.4181
vn 0.8101 -0.4111 -0.4181
vn -0.4378 0.8627 0.2529
vn 0.4378 -0.8627 0.2529
vn -0.8627 -0.4378 0.2529
vn 0.8627 0.4378 0.2529
vn 0.4111 -0.8101 -0.4181
vn 0.8101 0.4111 -0.4181
vn -0.4111 0.8101 -0.4181
vn -0.8101 -0.4111 -0.4181
vn 0.0000 -0.2969 0.9549
vn 0.0000 0.9974 0.0721
vn 0.0000 -0.9999 -0.0130
vn 0.0000 0.9973 0.0733
vn 0.8656 0.4975 0.0574
vn 0.0000 -0.7150 -0.6991
vn -0.8656 0.4975 0.0574
vn 0.7690 0.0000 -0.6392
vn -0.4754 -0.8772 -0.0673
vn -0.4710 -0.8790 -0.0741
vn -0.4808 -0.8748 -0.0588
vn -0.4851 -0.8729 -0.0522
vn -0.4413 -0.0000 0.8973
vn 0.5054 0.8592 0.0794
vn 0.5099 0.8572 0.0722
vn 0.5199 0.8524 0.0560
vn 0.5156 0.8545 0.0630
vn -0.7690 0.0000 -0.6392
vn 0.4754 -0.8772 -0.0673
vn 0.4851 -0.8729 -0.0522
vn 0.4808 -0.8748 -0.0588
vn 0.4710 -0.8790 -0.0741
vn 0.4413 -0.0000 0.8973
vn -0.5054 0.8592 0.0794
vn -0.5156 0.8545 0.0630
vn -0.5198 0.8524 0.0560
vn -0.5099 0.8572 0.0722
vn 0.3549 0.9344 -0.0310
vn 0.3549 0.9344 -0.0299
vn 0.3551 0.9341 -0.0364
vn -0.5738 0.1255 -0.8093
vn -0.5804 0.1065 -0.8073
vn -0.5750 0.1220 -0.8090
vn -0.4076 -0.9124 0.0374
vn -0.4139 -0.9094 0.0415
vn -0.4066 -0.9129 0.0368
vn 0.0040 -0.0000 1.0000
vn 0.0047 -0.0000 1.0000
vn 0.0036 -0.0000 1.0000
vn -0.3549 0.9344 -0.0310
vn -0.3551 0.9341 -0.0364
vn -0.3549 0.9344 -0.0299
vn 0.5738 0.1255 -0.8093
vn 0.5750 0.1221 -0.8090
vn 0.5804 0.1065 -0.8073
vn 0.4076 -0.9124 0.0374
vn 0.4066 -0.9129 0.0368
vn 0.4139 -0.9094 0.0415
vn -0.0040 -0.0000 1.0000
vn -0.0036 -0.0000 1.0000
vn -0.0047 -0.0000 1.0000
vn 0.9732 -0.2235 0.0541
vn 0.9717 -0.2294 0.0560
vn 0.9701 -0.2357 0.0574
vn -0.9717 -0.2294 0.0560
vn -0.9753 -0.2143 0.0529
vn -0.9753 -0.2144 0.0529
vn 0.9753 -0.2144 0.0529
vn 0.9753 -0.2143 0.0529
vn -0.9732 -0.2235 0.0541
vn -0.9701 -0.2357 0.0574
vn -0.8083 -0.4016 0.4305
vn -0.5291 0.8404 0.1170
vn 0.4765 -0.8782 -0.0408
vn -0.8830 -0.4388 0.1664
vn 0.8083 -0.4016 0.4305
vn 0.5291 0.8404 0.1170
vn -0.4765 -0.8782 -0.0408
vn 0.8830 -0.4388 0.1664
vn 0.0000 0.9467 0.3222
vn 0.0000 -0.1153 -0.9933
vn 0.9808 0.1931 0.0287
vn -0.9808 0.1931 0.0287
vn 0.4969 0.8628 0.0928
vn -0.4629 -0.8822 -0.0865
vn -0.5088 -0.8608 -0.0139
vn 0.5442 0.8388 0.0149
vn -0.4969 0.8628 0.0928
vn 0.4629 -0.8822 -0.0865
vn 0.5088 -0.8608 -0.0139
vn -0.5442 0.8388 0.0149
vn 0.0030 -0.0000 1.0000
vn 0.3546 0.9347 -0.0233
vn -0.5591 0.1651 -0.8125
vn -0.3986 -0.9166 0.0317
vn -0.0030 -0.0000 1.0000
vn -0.3546 0.9347 -0.0233
vn 0.5591 0.1651 -0.8125
vn 0.3986 -0.9166 0.0317
usemtl lambert4SG
s off
f 1/1/1 2/2/1 3/3/1 4/4/1
f 2/2/2 5/5/2 6/6/2 3/3/2
f 7/7/3 1/8/3 4/9/3 8/10/3
f 4/4/4 3/3/4 6/11/4 8/12/4
f 7/13/5 5/14/5 2/2/5 1/1/5
f 9/15/1 10/16/1 11/17/1 12/18/1
f 12/18/2 11/17/2 13/19/2 14/20/2
f 15/21/3 16/22/3 10/23/3 9/24/3
f 10/16/5 16/25/5 13/26/5 11/17/5
f 15/27/4 9/15/4 12/18/4 14/28/4
f 89/29/1 90/30/1 91/31/1 92/32/1
f 90/30/2 93/33/2 94/34/2 91/31/2
f 95/35/3 89/36/3 92/37/3 96/38/3
f 92/32/4 91/31/4 94/39/4 96/40/4
f 95/41/5 93/42/5 90/30/5 89/29/5
f 101/43/6 102/44/6 103/45/6 104/46/6
f 113/47/1 114/48/1 115/49/1 116/50/1
f 116/50/2 115/49/2 117/51/2 118/52/2
f 119/53/3 120/54/3 114/55/3 113/56/3
f 114/48/5 120/57/5 117/58/5 115/49/5
f 119/59/4 113/47/4 116/50/4 118/60/4
f 125/61/6 126/62/6 127/63/6 128/64/6
f 150/65/7 149/66/7 160/67/7 161/68/7
f 155/69/8 157/70/8 160/67/8
f 157/70/9 156/71/9 161/68/9 160/67/9
f 161/68/10 162/72/10 150/65/10
f 155/69/11 160/67/11 149/66/11
f 156/71/12 162/72/12 161/68/12
usemtl lambert2SG
f 73/73/4 74/74/4 75/75/4 76/76/4
f 85/77/5 86/78/5 87/79/5 88/80/5
f 97/81/13 98/82/13 99/83/13 100/84/13
f 105/85/14 106/86/14 107/87/14 108/88/14
f 107/89/15 106/90/15 99/91/15 98/82/15
f 105/92/16 108/93/16 97/81/16 100/94/16
f 110/95/17 109/96/17 102/44/17 101/43/17
f 109/96/18 111/97/18 103/45/18 102/44/18
f 111/97/19 112/98/19 104/46/19 103/45/19
f 112/98/20 110/95/20 101/43/20 104/46/20
f 121/99/21 122/100/21 123/101/21 124/102/21
f 129/103/22 130/104/22 131/105/22 132/106/22
f 131/107/23 124/102/23 123/108/23 132/109/23
f 129/110/24 122/111/24 121/99/24 130/112/24
f 133/113/25 125/61/25 128/64/25 134/114/25
f 134/114/26 128/64/26 127/63/26 135/115/26
f 135/115/27 127/63/27 126/62/27 136/116/27
f 136/116/28 126/62/28 125/61/28 133/113/28
f 145/117/29 146/118/29 147/119/29 148/120/29
f 148/120/30 147/119/30 149/121/30 150/122/30
f 151/123/6 152/124/6 153/125/6 154/126/6
f 153/125/31 146/127/31 145/128/31 154/126/31
f 156/71/32 157/70/32 158/129/32 159/130/32
f 155/69/33 152/124/33 158/129/33 157/70/33
f 152/124/34 151/123/34 159/130/34 158/129/34
f 151/123/35 162/72/35 156/71/35 159/130/35
s 1
f 21/131/36 29/132/36 30/133/36 23/134/36
f 18/135/37 23/134/38 30/133/39 31/136/40
f 19/137/41 18/138/41 31/139/41 32/140/41
f 21/131/42 19/137/43 32/140/44 29/132/45
f 38/141/46 40/142/46 45/143/46 46/144/46
f 36/145/47 47/146/48 45/143/49 40/142/50
f 35/147/51 48/148/51 47/149/51 36/150/51
f 38/141/52 46/144/53 48/148/54 35/147/55
f 67/151/56 70/152/57 75/153/58 74/74/58
f 72/154/59 76/155/60 75/153/60 70/152/61
f 68/156/62 73/157/63 76/155/63 72/154/64
f 67/151/65 74/74/66 73/73/66 68/158/67
f 79/159/68 88/80/69 87/160/69 81/161/70
f 83/162/71 81/161/72 87/160/73 86/163/73
f 78/164/74 83/162/75 86/163/76 85/165/76
f 79/159/77 78/166/78 85/77/79 88/80/79
f 100/84/6 99/83/6 109/96/6 110/95/6
f 99/83/6 106/86/6 111/97/6 109/96/6
f 106/86/6 105/85/6 112/98/6 111/97/6
f 105/85/6 100/84/6 110/95/6 112/98/6
f 122/100/6 133/113/6 134/114/6 123/101/6
f 123/101/6 134/114/6 135/115/6 132/106/6
f 132/106/6 135/115/6 136/116/6 129/103/6
f 129/103/6 136/116/6 133/113/6 122/100/6
f 155/167/80 153/168/81 152/169/82
f 154/170/83 145/117/84 148/120/84 150/171/85
f 153/168/81 149/172/86 147/119/87 146/118/87
f 154/170/83 162/173/88 151/174/89
f 155/167/80 149/172/86 153/168/81
f 154/170/83 150/171/85 162/173/88
usemtl lambert3SG
s off
f 25/175/5 26/176/5 27/177/5 28/178/5
f 41/179/4 42/180/4 43/181/4 44/182/4
f 49/183/90 50/184/90 51/185/90 52/186/90
f 50/184/91 53/187/91 54/188/91 51/185/91
f 53/187/6 55/189/6 56/190/6 54/188/6
f 55/189/92 49/191/92 52/192/92 56/190/92
f 52/186/93 51/185/93 54/193/93 56/194/93
f 57/195/94 58/196/94 59/197/94 60/198/94
f 60/198/95 59/197/95 61/199/95 62/200/95
f 62/200/6 61/199/6 63/201/6 64/202/6
f 64/202/96 63/201/96 58/203/96 57/204/96
f 58/196/97 63/205/97 61/206/97 59/197/97
f 137/207/98 138/208/98 139/209/98 140/210/98
f 140/210/2 139/209/2 141/211/2 142/212/2
f 142/212/99 141/211/99 143/213/99 144/214/99
f 138/208/100 143/215/100 141/216/100 139/209/100
f 144/217/101 137/207/101 140/210/101 142/218/101
s 1
f 17/219/41 18/138/41 19/137/41 20/220/41
f 20/220/102 19/137/43 21/131/42 22/221/102
f 22/221/36 21/131/36 23/134/36 24/222/36
f 24/222/103 23/134/38 18/135/37 17/223/103
f 29/132/36 27/224/36 26/225/36 30/133/36
f 31/136/40 30/133/39 26/225/104 25/226/104
f 32/140/41 31/139/41 25/175/41 28/178/41
f 29/132/45 32/140/44 28/178/105 27/224/105
f 33/227/51 34/228/51 35/147/51 36/150/51
f 34/228/106 37/229/106 38/141/52 35/147/55
f 37/229/46 39/230/46 40/142/46 38/141/46
f 39/230/107 33/231/107 36/145/47 40/142/50
f 46/144/46 45/143/46 44/232/46 43/233/46
f 47/146/48 41/234/108 44/232/108 45/143/49
f 48/148/51 42/180/51 41/179/51 47/149/51
f 46/144/53 43/233/109 42/180/109 48/148/54
f 65/235/110 66/236/110 67/151/65 68/158/67
f 66/236/111 69/237/111 70/152/57 67/151/56
f 69/237/112 71/238/112 72/154/59 70/152/61
f 71/238/113 65/239/113 68/156/62 72/154/64
f 77/240/114 78/166/78 79/159/77 80/241/114
f 80/241/115 79/159/68 81/161/70 82/242/115
f 82/242/116 81/161/72 83/162/71 84/243/116
f 84/243/117 83/162/75 78/164/74 77/244/117
